<svg version="1.1"
	 xmlns="http://www.w3.org/2000/svg" xmlns:xlink="http://www.w3.org/1999/xlink" xmlns:a="http://ns.adobe.com/AdobeSVGViewerExtensions/3.0/"
	 x="0px" y="0px" width="9px" height="9px" viewBox="0 0 9 9" style="enable-background:new 0 0 9 9;" xml:space="preserve">
<style type="text/css">
	.st0{fill:#FFFFFF;}
</style>
<defs>
</defs>
<g>
	<g id="XMLID_2_">
		<rect x="2.7" y="2.7" class="st0" width="0.9" height="0.9"/>
		<rect x="1.8" y="3.6" class="st0" width="0.9" height="0.9"/>
		<rect x="1.8" y="0.9" class="st0" width="0.9" height="0.9"/>
		<rect x="0.9" y="1.8" class="st0" width="0.9" height="0.9"/>
		<rect x="0.9" y="0.9" class="st0" width="0.9" height="0.9"/>
		<rect y="2.7" class="st0" width="0.9" height="0.9"/>
		<rect y="3.6" class="st0" width="0.9" height="0.9"/>
		<rect y="4.5" class="st0" width="0.9" height="0.9"/>
		<rect y="5.4" class="st0" width="0.9" height="0.9"/>
		<rect x="0.9" y="6.3" class="st0" width="0.9" height="0.9"/>
		<rect x="1.8" y="7.2" class="st0" width="0.9" height="0.9"/>
		<rect x="0.9" y="7.2" class="st0" width="0.9" height="0.9"/>
		<rect x="4.5" y="8.1" class="st0" width="0.9" height="0.9"/>
		<rect x="5.4" y="8.1" class="st0" width="0.9" height="0.9"/>
		<rect x="3.6" y="8.1" class="st0" width="0.9" height="0.9"/>
		<rect x="2.7" y="8.1" class="st0" width="0.9" height="0.9"/>
		<rect x="7.2" y="6.3" class="st0" width="0.9" height="0.9"/>
		<rect x="7.2" y="7.2" class="st0" width="0.9" height="0.9"/>
		<rect x="6.3" y="7.2" class="st0" width="0.9" height="0.9"/>
		<rect x="8.1" y="5.4" class="st0" width="0.9" height="0.9"/>
		<rect x="8.1" y="4.5" class="st0" width="0.9" height="0.9"/>
		<rect x="8.1" y="3.6" class="st0" width="0.9" height="0.9"/>
		<rect x="8.1" y="2.7" class="st0" width="0.9" height="0.9"/>
		<rect x="7.2" y="1.8" class="st0" width="0.9" height="0.9"/>
		<rect x="7.2" y="0.9" class="st0" width="0.9" height="0.9"/>
		<rect x="6.3" y="0.9" class="st0" width="0.9" height="0.9"/>
		<rect x="5.4" class="st0" width="0.9" height="0.9"/>
		<rect x="4.5" class="st0" width="0.9" height="0.9"/>
		<rect x="3.6" class="st0" width="0.9" height="0.9"/>
		<rect x="2.7" class="st0" width="0.9" height="0.9"/>
	</g>
</g>
</svg>
